<?xml version="1.0" standalone="no"?>
<!DOCTYPE svg PUBLIC "-//W3C//DTD SVG 20010904//EN"
 "http://www.w3.org/TR/2001/REC-SVG-20010904/DTD/svg10.dtd">
<svg version="1.0" xmlns="http://www.w3.org/2000/svg"
 width="624.000000pt" height="586.000000pt" viewBox="0 0 624.000000 586.000000"
 preserveAspectRatio="xMidYMid meet">

<g transform="translate(0.000000,586.000000) scale(0.100000,-0.100000)"
fill="#171591" stroke="none">
<path d="M2905 5170 c-456 -48 -843 -204 -1180 -475 -280 -224 -466 -455 -621
-770 -148 -303 -219 -581 -231 -910 -22 -599 201 -1197 604 -1615 221 -229
418 -378 648 -490 682 -332 1507 -299 2143 85 184 111 265 175 443 354 150
150 189 196 269 316 390 584 494 1298 283 1948 -267 829 -950 1412 -1803 1542
-124 19 -441 27 -555 15z m218 -1020 c148 -12 292 -41 424 -85 98 -33 217 -87
258 -119 19 -14 19 -16 3 -32 -16 -16 -29 -17 -170 -6 -187 15 -293 15 -377 1
-251 -40 -364 -175 -364 -434 0 -163 25 -272 139 -588 35 -97 64 -190 64 -205
l0 -28 -422 69 c-233 38 -426 72 -430 76 -14 12 -58 260 -69 383 -27 324 51
598 216 762 136 136 306 197 590 214 11 1 73 -3 138 -8z m316 -475 c147 -35
287 -149 357 -289 33 -68 38 -87 39 -150 0 -90 -28 -146 -99 -194 -72 -48
-142 -65 -250 -60 -80 3 -100 8 -169 41 -91 44 -187 130 -234 208 -120 201
-50 384 169 443 69 19 109 19 187 1z m593 -157 c130 -133 222 -288 270 -455
33 -112 32 -305 0 -418 -121 -420 -585 -798 -1215 -989 -135 -41 -355 -89
-368 -80 -20 12 -174 371 -357 829 -131 329 -124 295 -62 295 28 0 119 -13
203 -30 234 -46 349 -60 502 -60 443 0 829 166 947 407 32 67 33 70 32 198 -1
120 -4 139 -37 250 -21 66 -37 128 -37 138 0 28 34 5 122 -85z"/>
</g>
</svg>
